<?xml version="1.0" encoding="UTF-8" standalone="no"?>
<svg
   xmlns:dc="http://purl.org/dc/elements/1.1/"
   xmlns:cc="http://creativecommons.org/ns#"
   xmlns:rdf="http://www.w3.org/1999/02/22-rdf-syntax-ns#"
   xmlns:svg="http://www.w3.org/2000/svg"
   xmlns="http://www.w3.org/2000/svg"
   viewBox="0 0 259.86667 259.86667"
   height="259.86667"
   width="259.86667"
   xml:space="preserve"
   id="svg2"
   version="1.1"><metadata
     id="metadata8"><rdf:RDF><cc:Work
         rdf:about=""><dc:format>image/svg+xml</dc:format><dc:type
           rdf:resource="http://purl.org/dc/dcmitype/StillImage" /></cc:Work></rdf:RDF></metadata><defs
     id="defs6" /><g
     transform="matrix(1.3333333,0,0,-1.3333333,0,259.86667)"
     id="g10"><g
       transform="scale(0.1)"
       id="g12"><path
         id="path14"
         style="fill:#231f20;fill-opacity:1;fill-rule:nonzero;stroke:none"
         d="M 353.074,505.23 C 774.234,482.73 908.512,299.16 950.867,195.672 706.949,202.969 490.953,322.961 353.074,505.23 Z m 1210.346,978.8 c -375.06,12.63 -517.35,162.06 -571.225,269.45 227.875,-5.1 431.865,-108.54 571.225,-269.45 z M 204.148,1092.1 c 47.618,313.24 282.43,565.76 586.368,639.62 23.437,-67.7 67.812,-153.49 151.816,-231.75 151.228,-140.9 377.088,-212.11 672.188,-212.11 23.74,0 283.06,-0.48 283.06,-0.48 -130.34,384.7 -494.35,661.6 -923.092,661.6 -498.386,0 -909.3239,-374.16 -967.40206,-856.88 -4.63672,-38.56 -7.08984625,-77.8 -7.08984625,-117.612 0,-25.394 1.04687625,-50.539 2.94921625,-75.449 L 1749.84,896.82 C 1716.6,562.398 1471.02,289.559 1150.24,215.32 1133.73,273 1098.7,355.961 1024.64,438.219 869.273,610.781 619.742,699.531 283.453,702.449 l 0.754,0.211 -246.0078,1.11 C 155.516,297.301 530.242,0 974.488,0 1486.54,0 1906.32,394.941 1945.9,896.82 c 2.02,25.629 3.08,51.532 3.08,77.668 0,39.812 -2.45,79.052 -7.09,117.612 H 204.148" /></g></g></svg>