<?xml version="1.0" encoding="UTF-8" standalone="no"?>
<svg
   xmlns:dc="http://purl.org/dc/elements/1.1/"
   xmlns:cc="http://creativecommons.org/ns#"
   xmlns:rdf="http://www.w3.org/1999/02/22-rdf-syntax-ns#"
   xmlns:svg="http://www.w3.org/2000/svg"
   xmlns="http://www.w3.org/2000/svg"
   viewBox="0 0 615.70667 250.77333"
   height="250.77333"
   width="615.70667"
   xml:space="preserve"
   id="svg2"
   version="1.1"><metadata
     id="metadata8"><rdf:RDF><cc:Work
         rdf:about=""><dc:format>image/svg+xml</dc:format><dc:type
           rdf:resource="http://purl.org/dc/dcmitype/StillImage" /></cc:Work></rdf:RDF></metadata><defs
     id="defs6" /><g
     transform="matrix(1.3333333,0,0,-1.3333333,0,250.77333)"
     id="g10"><g
       transform="scale(0.1)"
       id="g12"><path
         id="path14"
         style="fill:#231f20;fill-opacity:1;fill-rule:nonzero;stroke:none"
         d="m 1974.46,1103.74 c 226.67,-12.11 298.94,-110.908 321.74,-166.599 -131.28,3.922 -247.52,68.499 -321.74,166.599 z m 651.41,526.79 c -201.86,6.79 -278.43,87.21 -307.43,145.02 122.64,-2.75 232.43,-58.42 307.43,-145.02 z m -731.56,-210.94 c 25.63,168.59 152.01,304.49 315.58,344.24 12.62,-36.43 36.5,-82.6 81.71,-124.73 81.4,-75.82 202.95,-114.15 361.77,-114.15 12.78,0 152.35,-0.26 152.35,-0.26 -70.16,207.04 -266.06,356.07 -496.81,356.07 -268.23,0 -489.4,-201.37 -520.65,-461.17 -2.5,-20.75 -3.82,-41.86 -3.82,-63.29 0,-13.67 0.56,-27.21 1.59,-40.62 l 940.17,-1.19 c -17.89,-179.98 -150.06,-326.822 -322.7,-366.775 -8.89,31.035 -27.74,75.695 -67.6,119.965 -83.62,92.87 -217.91,140.63 -398.9,142.2 l 0.4,0.12 -132.4,0.6 c 63.14,-218.764 264.82,-378.768 503.91,-378.768 275.58,0 501.51,212.558 522.81,482.658 1.08,13.79 1.66,27.74 1.66,41.81 0,21.43 -1.32,42.54 -3.82,63.29 h -935.25" /><path
         id="path16"
         style="fill:#231f20;fill-opacity:1;fill-rule:nonzero;stroke:none"
         d="m 386.355,432.328 c -27.351,17.512 -61.015,37.402 -100.964,59.652 -39.946,22.25 -71.235,43.969 -93.852,65.129 -34.297,31.743 -51.441,66.762 -51.441,105.071 0,20.8 4.011,38.308 12.039,52.539 23.711,41.59 66.668,62.383 128.879,62.383 62.195,0 102.789,-12.77 121.765,-38.301 -23.359,-16.071 -35.027,-38.141 -35.027,-66.223 0,-10.219 2,-19.887 6.023,-29.008 13.489,-30.289 37.571,-45.422 72.239,-45.422 22.617,0 41.316,8.122 56.089,24.352 14.778,16.23 22.161,36.398 22.161,60.48 0,44.5 -23.25,82.258 -69.778,113.282 -46.511,31 -105.984,46.508 -178.394,46.508 -72.434,0 -133.176,-20.059 -182.2385,-60.192 C 44.7813,742.441 20.25,689.898 20.25,624.969 c 0,-83.18 47.6094,-155.418 142.836,-216.719 25.894,-16.789 61.375,-37.672 106.434,-62.648 45.058,-25 77.07,-45.352 96.043,-61.02 36.476,-30.293 54.726,-63.121 54.726,-98.512 0,-20.441 -4.375,-38.308 -13.133,-53.629 -24.441,-44.5191 -69.601,-66.7691 -135.449,-66.7691 -65.859,0 -113.008,14.2265 -141.465,42.6871 21.16,16.422 31.746,36.301 31.746,59.653 0,23.347 -7.39,42.679 -22.168,58.008 C 125.047,241.352 106.172,249 83.1797,249 71.1406,249 60.0078,246.629 49.8008,241.891 16.5977,227.289 -0.00390625,199.289 -0.00390625,157.891 -0.00390625,116.469 24.3516,79.8008 73.0547,47.8906 121.766,15.9609 186.52,0 267.332,0 c 80.801,0 146.66,18.7891 197.559,56.3711 50.898,37.5781 76.336,91.0199 76.336,160.3479 0,78.07 -51.629,149.941 -154.872,215.609" /><path
         id="path18"
         style="fill:#231f20;fill-opacity:1;fill-rule:nonzero;stroke:none"
         d="m 1149.82,129.711 v 211.777 c 0,156.524 -59.11,234.774 -177.312,234.774 -16.414,0 -33.203,-2.012 -50.34,-6.024 -51.445,-11.679 -96.691,-33.929 -135.727,-66.758 0,24.43 -3.007,42.219 -9.031,53.36 -6.015,11.121 -18.699,16.691 -38.027,16.691 -9.492,0 -18.34,-1.203 -26.543,-3.562 -8.211,-2.379 -22.078,-6.207 -41.59,-11.489 -19.523,-5.3 -46.437,-7.941 -80.727,-7.941 V 490.34 h 33.391 c 20.422,0 32.922,-4.008 37.481,-12.039 4.558,-8.031 6.843,-25.18 6.843,-51.43 V 128.609 c 0,-10.937 -0.918,-20.07 -2.73,-27.359 -1.836,-7.3008 -6.758,-14.1484 -14.785,-20.5312 -8.032,-6.379 -27.727,-9.5704 -59.106,-9.5704 V 10.9492 h 278.012 v 60.1992 c -35.395,0 -59.477,4.9219 -72.238,14.7813 -7.305,5.832 -10.95,20.0583 -10.95,42.6793 v 310.289 c 37.219,37.211 85.735,55.821 145.571,55.821 38.308,0 66.765,-18.61 85.368,-55.821 9.48,-18.976 14.23,-53.816 14.23,-104.527 v -204.66 c 0,-10.949 -0.55,-20.07 -1.64,-27.371 -1.1,-7.3009 -5.02,-14.3205 -11.77,-21.0705 -6.75,-6.7578 -26.727,-10.1211 -59.923,-10.1211 V 10.9492 h 258.853 v 60.1992 c -31.01,0 -49.98,3.7305 -56.92,11.211 -6.93,7.4804 -10.39,23.2616 -10.39,47.3516" /><path
         id="path20"
         style="fill:#231f20;fill-opacity:1;fill-rule:nonzero;stroke:none"
         d="m 1626.25,123.68 c -26.46,-38.6683 -60.84,-58.0081 -103.16,-58.0081 -42.33,0 -76.71,19.3398 -103.16,58.0081 -26.46,38.672 -39.67,94.129 -39.67,166.371 0,37.57 3.64,70.41 10.94,98.5 20.43,81.719 64.39,122.59 131.89,122.59 20.79,0 39.94,-4.379 57.46,-13.129 56.92,-28.114 85.38,-98.512 85.38,-211.242 0,-70.051 -13.24,-124.418 -39.68,-163.09 z m -103.16,453.129 c -79.9,0 -143.93,-24.09 -192.09,-72.239 -24.44,-24.441 -43.5,-55.191 -57.18,-92.211 -13.69,-37.039 -20.52,-77.437 -20.52,-121.218 0,-87.192 22.89,-157.52 68.67,-210.9613 C 1367.75,26.7305 1434.79,0 1523.09,0 c 88.28,0 155.23,27.5508 200.84,82.6406 45.6,55.0784 68.41,127.0504 68.41,215.8984 0,88.82 -24.72,157.41 -74.16,205.762 -49.43,48.34 -114.46,72.508 -195.09,72.508" /><path
         id="path22"
         style="fill:#231f20;fill-opacity:1;fill-rule:nonzero;stroke:none"
         d="m 2667.71,491.441 c 12.59,9.481 30.92,14.219 55,14.219 v 60.199 H 2473.16 V 505.66 c 40.86,0 67.67,-4.469 80.45,-13.398 12.76,-8.953 15.32,-24 7.66,-45.153 l -103.98,-309.75 -137.91,428.5 h -79.34 L 2098.85,149.398 1992.67,447.109 c -4.02,10.95 -6.11,20.063 -6.29,27.36 -0.19,7.301 3.65,14.32 11.49,21.07 7.84,6.75 30.93,10.121 69.23,10.121 v 60.199 H 1790.74 V 505.66 c 24.43,0 41.4,-4.199 50.89,-12.582 9.48,-8.398 18.61,-23.719 27.36,-45.969 L 2038.64,10.9492 h 92.49 L 2258.09,385.82 2394.35,10.9492 h 92.49 l 151.6,436.1598 c 6.92,20.063 16.68,34.832 29.27,44.332" /><path
         id="path24"
         style="fill:#231f20;fill-opacity:1;fill-rule:nonzero;stroke:none"
         d="m 4613.99,163.09 h -53.08 c 0,-53.641 -12.59,-80.4494 -37.77,-80.4494 -9.12,0 -17.33,5.0977 -24.62,15.3203 -7.3,10.2111 -14.77,23.4371 -22.44,39.6801 -7.65,16.23 -16.05,34.211 -25.17,53.898 -37.21,78.441 -85.75,128.973 -145.57,151.59 21.52,21.16 43.05,41.051 64.58,59.652 71.14,63.117 140.63,95.578 208.5,97.418 v 65.66 h -302.08 v -65.66 h 94.67 c -3.65,-5.48 -9.13,-12.051 -16.42,-19.711 -44.88,-48.527 -97.4,-93.949 -157.61,-136.258 h -27.91 v 454.758 c 0,24.813 -3.19,42.692 -9.57,53.641 -6.39,10.93 -19.07,16.41 -38.04,16.41 -9.85,0 -19.25,-1.187 -28.18,-3.551 -8.95,-2.379 -23.81,-6.207 -44.6,-11.5 -20.8,-5.289 -49.62,-7.937 -86.47,-7.937 v -60.192 h 44.33 c 20.43,0 32.92,-4.019 37.49,-12.039 4.55,-8.031 6.84,-25.179 6.84,-51.449 v -592.66 c 0,-21.539 -5.94,-36.6719 -17.79,-45.4297 -11.86,-8.75 -33.66,-13.1329 -65.4,-13.1329 V 10.9492 h 282.93 v 60.1992 c -35.02,0 -57.37,4.1016 -67.04,12.3125 -9.67,8.211 -14.5,23.6211 -14.5,46.2501 v 154.871 c 2.92,0.348 5.83,0.547 8.76,0.547 2.92,0 5.83,0 8.76,0 38.3,0 70.95,-14.777 97.96,-44.34 15.67,-17.508 35.38,-50.34 59.1,-98.5 8.75,-17.508 17.69,-34.848 26.82,-51.9882 C 4402.57,30.1094 4444.98,0 4497.69,0 c 52.73,0 88.57,20.0703 107.54,60.2109 7.67,17.1289 11.67,31.1875 12.04,42.1291 0.36,10.941 0.55,20.879 0.55,29.832 0,8.93 -1.28,19.238 -3.83,30.918" /><path
         id="path26"
         style="fill:#231f20;fill-opacity:1;fill-rule:nonzero;stroke:none"
         d="m 3113.87,404.551 c -16.13,-34.199 -42.94,-57.289 -80.42,-69.289 -13.74,-4.391 -26.8,-4.992 -39.18,-1.821 -7.98,22.579 -19.3,80.438 46.63,133.899 0,0 -67.41,-36.738 -90.17,-93.32 -1.3,3.089 -2.69,6.019 -3.79,9.449 -7.24,22.609 -6.82,45.812 1.24,69.601 8.07,23.77 24.36,46.34 48.87,67.731 5.09,4.121 17.79,14.25 38.1,30.371 20.32,16.117 39.11,32.808 56.38,50.098 l 23.89,-74.649 c 15.1,-47.191 14.58,-87.871 -1.55,-122.07 z m 263.83,-273.75 -270.34,701.031 h -93.57 L 2718.27,130.801 c -8.4,-21.16 -20.34,-36.4026 -35.85,-45.6994 -15.51,-9.3008 -38.4,-13.9532 -68.68,-13.9532 V 10.9492 h 299.34 v 60.1992 c -49.62,0 -81.18,4.4727 -94.66,13.4024 -13.51,8.9375 -16.07,24.3592 -7.67,46.2502 l 56.37,137.347 h 317.96 l 49.24,-137.347 c 4.38,-11.321 6.84,-20.801 7.4,-28.461 0.54,-7.6603 -3.66,-14.7697 -12.59,-21.34 -8.95,-6.5703 -37.49,-9.8516 -85.65,-9.8516 V 10.9492 h 337.66 v 60.1992 c -35.03,0 -58.56,4.1016 -70.6,12.3125 -12.04,8.211 -22.98,23.9801 -32.84,47.3401" /><path
         id="path28"
         style="fill:#231f20;fill-opacity:1;fill-rule:nonzero;stroke:none"
         d="m 3959.69,553.27 c -15.15,15.691 -36.39,23.539 -63.75,23.539 -14.23,0 -28.47,-2.188 -42.69,-6.571 -39.78,-12.777 -75.34,-37.578 -106.72,-74.429 v 10.953 c 0,24.797 -3.19,42.679 -9.58,53.629 -6.39,10.949 -18.88,16.418 -37.48,16.418 -9.49,0 -18.34,-1.188 -26.54,-3.559 -8.22,-2.379 -21.9,-6.211 -41.05,-11.488 -19.15,-5.301 -46.06,-7.93 -80.72,-7.93 v -60.211 h 33.39 c 20.06,0 32.37,-4.012 36.93,-12.039 4.56,-8.031 6.85,-25.16 6.85,-51.434 V 128.609 c 0,-10.937 -0.82,-20.07 -2.47,-27.359 -1.64,-7.3008 -6.48,-14.1484 -14.49,-20.5312 -8.04,-6.379 -27.74,-9.5704 -59.12,-9.5704 V 10.9492 h 310.84 v 60.1992 c -52.17,0 -83.45,2.8125 -93.84,8.4805 -10.4,5.6524 -16.79,12.5899 -19.16,20.8011 -2.38,8.199 -3.56,19.242 -3.56,33.109 V 426.32 c 12.76,19.7 27.64,35.289 44.6,46.789 16.96,11.493 32.92,18.332 47.89,20.512 -1.46,-21.883 4.46,-40.133 17.78,-54.723 13.32,-14.589 30.19,-21.886 50.62,-21.886 20.8,0 38.49,7.297 53.09,21.886 14.59,14.59 21.89,33.391 21.89,56.364 0,22.988 -7.58,42.328 -22.71,58.008" /></g></g></svg>